<svg xmlns="http://www.w3.org/2000/svg" data-name="Layer 1" viewBox="0 0 512 512"><g data-name="&lt;Group&gt;"><g data-name="&lt;Group&gt;"><path fill="#00efd1" d="M212,392.35a143.448,143.448,0,0,0,44.05,6.88h.01a143.721,143.721,0,0,0,43.8-6.8v-.01A143.3,143.3,0,0,0,399.49,256c0-79.11-64.22-143.23-143.44-143.23S112.61,176.89,112.61,256A143.311,143.311,0,0,0,212,392.35ZM493.55,221.2v69.6l-51.1,5a192.732,192.732,0,0,1-26.8,63.4l33,39.8-49.2,49.1-39.8-33a185.836,185.836,0,0,1-63.5,26.7l-5,51.6h-69.7l-5-51.6c-23-4.9-44.2-14.3-63.5-26.7l-39.8,33L63.95,399l33-39.8a185.762,185.762,0,0,1-26.8-63.4l-51.7-5V221.2l51.7-5a192.732,192.732,0,0,1,26.8-63.4l-33-39.8,49.2-49.1,39.8,33a185.836,185.836,0,0,1,63.5-26.7l5-51.6h69.7l5,51.6c23,4.9,44.2,14.3,63.5,26.7l39.8-33,48.6,49.1-33,39.8a185.762,185.762,0,0,1,26.8,63.4Z" data-name="&lt;Group&gt;"/><path fill="#00acea" d="M256.05,112.77c79.22,0,143.44,64.12,143.44,143.23a143.3,143.3,0,0,1-99.63,136.42l-.65-21.31c-.98-16.99,5.22-33.65,17.31-45.08a88.394,88.394,0,0,0-65.99-152.56c-44.75,2.94-81.01,39.85-82.65,84.61a88.509,88.509,0,0,0,27.77,67.95,58.512,58.512,0,0,1,17.31,50.3L212,392.35A143.311,143.311,0,0,1,112.61,256C112.61,176.89,176.83,112.77,256.05,112.77Z" data-name="&lt;Group&gt;"/><path fill="#fedb41" d="M256.06,399.23h-.01A143.448,143.448,0,0,1,212,392.35l.96-16.02a58.512,58.512,0,0,0-17.31-50.3,88.509,88.509,0,0,1-27.77-67.95c1.64-44.76,37.9-81.67,82.65-84.61a88.394,88.394,0,0,1,65.99,152.56c-12.09,11.43-18.29,28.09-17.31,45.08l.65,21.31v.01A143.721,143.721,0,0,1,256.06,399.23Z" data-name="&lt;Group&gt;"/></g><g data-name="&lt;Group&gt;"><path fill="#083863" d="M494.545,213.237l-46.1-4.447A193.048,193.048,0,0,0,425,153.4l29.234-35.293a8,8,0,0,0-.487-10.734l-48.606-49.1a8,8,0,0,0-10.795-.53L358.99,87.057A199.271,199.271,0,0,0,303.558,63.7l-4.445-45.669A7.828,7.828,0,0,0,291.15,11h-69.7a7.83,7.83,0,0,0-7.963,7.028L209.042,63.8A192.715,192.715,0,0,0,153.56,87.064l-35.3-29.3a8,8,0,0,0-10.757.484L58.3,107.343a8,8,0,0,0-.507,10.767l29.3,35.33a200.114,200.114,0,0,0-23.4,55.348l-46.235,4.45A8.2,8.2,0,0,0,10,221.2v69.6a8.2,8.2,0,0,0,7.455,7.963l46.1,4.447A193.048,193.048,0,0,0,87,358.6L57.764,393.894a8,8,0,0,0,.521,10.769l49.207,49.1a8,8,0,0,0,10.761.5l35.358-29.315a199.253,199.253,0,0,0,55.431,23.36l4.445,45.669A7.829,7.829,0,0,0,221.45,501h69.7a7.829,7.829,0,0,0,7.963-7.028l4.445-45.771a192.715,192.715,0,0,0,55.482-23.265l35.3,29.3a7.994,7.994,0,0,0,10.757-.484l49.2-49.092a8,8,0,0,0,.507-10.767l-29.3-35.33a200.106,200.106,0,0,0,23.4-55.355l45.642-4.444A8.2,8.2,0,0,0,502,290.8V221.2A8.2,8.2,0,0,0,494.545,213.237ZM486,283.544l-44.1,4.294a8.132,8.132,0,0,0-7.143,6.226A184.508,184.508,0,0,1,409,354.834a8,8,0,0,0,.517,9.473l28.329,34.183L398.959,437.3l-34.2-28.354a8,8,0,0,0-9.522-.513,177.184,177.184,0,0,1-60.768,25.551,7.775,7.775,0,0,0-6.283,6.849L283.888,485H228.712l-4.3-44.172a7.886,7.886,0,0,0-6.3-6.953,183.229,183.229,0,0,1-60.843-25.556,8,8,0,0,0-9.43.6l-34.2,28.365-38.883-38.8,28.343-34.18a8,8,0,0,0,.5-9.535A177.2,177.2,0,0,1,77.967,294.1a8.262,8.262,0,0,0-7.272-6.26L26,283.536V228.464l44.695-4.3a8.132,8.132,0,0,0,7.152-6.227,184.49,184.49,0,0,1,25.751-60.77,8,8,0,0,0-.518-9.473L74.751,113.51l38.89-38.8,34.2,28.353a8,8,0,0,0,9.521.513A177.192,177.192,0,0,1,218.13,78.021a7.774,7.774,0,0,0,6.283-6.849L228.712,27h55.176l4.3,44.172a7.886,7.886,0,0,0,6.3,6.953,183.22,183.22,0,0,1,60.843,25.556,8,8,0,0,0,9.43-.6l34.161-28.337,38.347,38.734L408.892,147.7a8,8,0,0,0-.5,9.535A177.2,177.2,0,0,1,434.033,217.9a8.262,8.262,0,0,0,7.272,6.26l44.695,4.3Z" data-name="&lt;Compound Path&gt;"/><path fill="#083863" d="M256.05,104.77c-83.505,0-151.44,67.841-151.44,151.23A151.308,151.308,0,0,0,209.547,399.965a152.495,152.495,0,0,0,92.746.086c.129-.041.256-.086.381-.133A151.3,151.3,0,0,0,407.49,256C407.49,172.611,339.554,104.77,256.05,104.77Zm35.167,266.69.429,15.038A140.073,140.073,0,0,1,264,390.973V306h9.84a8,8,0,0,0,0-16H238.27a8,8,0,1,0,0,16H248v84.974a139.641,139.641,0,0,1-27.663-4.5l.575-9.358A66.3,66.3,0,0,0,201.125,320.2a80.484,80.484,0,0,1-25.254-61.831c1.482-40.46,34.507-74.248,75.114-76.916a80.394,80.394,0,0,1,60.039,138.76C297.332,333.161,290.116,351.834,291.217,371.46Zm73.706-35.006a134.77,134.77,0,0,1-57.4,44.673l-.313-10.261c0-.072,0-.144-.009-.217-.862-14.943,4.539-29.087,14.805-38.793A96.567,96.567,0,0,0,352.29,261.67a96.382,96.382,0,0,0-102.285-96.183c-48.755,3.2-88.34,43.746-90.119,92.278a96.449,96.449,0,0,0,30.25,74.061,50.258,50.258,0,0,1,14.9,43.39q-.045.317-.064.636l-.318,5.31A135.321,135.321,0,0,1,120.61,256c0-74.566,60.758-135.23,135.44-135.23S391.49,181.434,391.49,256A133.975,133.975,0,0,1,364.923,336.454Z" data-name="&lt;Compound Path&gt;"/></g></g></svg>